<svg width="22" height="13" viewBox="0 0 22 13" fill="none" xmlns="http://www.w3.org/2000/svg">
<path d="M9.30723 10.812H7.43523V12H12.9792V10.812H11.3412L7.47123 0.0839989H5.65323L1.53123 10.812H0.253226V12H4.41123V10.812H2.91723L3.99723 7.842H8.28123L9.30723 10.812ZM6.17523 1.956H6.24723L7.92123 6.798H4.39323L6.17523 1.956ZM15.857 12.09C16.919 12.09 18.053 11.496 18.503 10.614H18.593C18.593 11.622 19.313 12.054 20.069 12.054C20.879 12.054 21.491 11.64 21.923 10.632L21.293 10.254C21.113 10.65 20.897 10.902 20.645 10.902C20.213 10.902 20.087 10.722 20.087 10.308V6.132C20.087 4.404 19.007 3.63 17.135 3.63C15.281 3.63 13.751 4.422 13.751 5.736C13.751 6.258 14.147 6.78 14.849 6.78C15.515 6.78 15.893 6.312 15.893 5.772C15.893 5.394 15.677 5.034 15.371 4.89C15.803 4.656 16.217 4.548 16.757 4.548C17.891 4.548 18.395 4.944 18.395 6.006V6.852C18.395 7.176 18.197 7.194 17.135 7.356C15.641 7.572 14.741 7.788 14.075 8.454C13.643 8.886 13.463 9.39 13.463 9.966C13.463 11.208 14.345 12.09 15.857 12.09ZM16.631 10.938C15.713 10.938 15.299 10.398 15.299 9.606C15.299 8.526 15.839 8.31 17.585 8.04C18.035 7.968 18.233 7.932 18.395 7.86V9.282C18.395 10.236 17.441 10.938 16.631 10.938Z" fill="#5E6266"/>
</svg>
