<svg width="23" height="22" viewBox="0 0 23 22" fill="none" xmlns="http://www.w3.org/2000/svg">
<path d="M1.74277 5.13535H5.5808V19.7564H1.74277V5.13535ZM5.5808 3.89258H0.5V20.9992H6.82357V3.89258H5.5808Z" fill="#B3B4B4"/>
<path d="M6.01967 16.4473H1.66992V17.7083H6.01967V16.4473Z" fill="#B3B4B4"/>
<path d="M9.61932 1.26107H13.4573V19.7566H9.61932V1.26107ZM8.35828 0V20.9994H14.7001V0H8.35828Z" fill="#B3B4B4"/>
<path d="M13.8967 16.4473H9.32764V17.7083H13.8967V16.4473Z" fill="#B3B4B4"/>
<path d="M17.5701 3.6751H21.2253V19.7582H17.5701V3.6751ZM21.2253 2.41406H16.3456V21.001H22.4864V2.41406H21.2253Z" fill="#B3B4B4"/>
<path d="M21.8282 16.4473H16.985V17.7083H21.8282V16.4473Z" fill="#B3B4B4"/>
<path d="M22.1574 5.73828H17.2959V6.99934H22.1574V5.73828Z" fill="#B3B4B4"/>
<path d="M14.0428 3.28906H9.18127V4.55013H14.0428V3.28906Z" fill="#B3B4B4"/>
<path d="M6.00138 7.27539H1.13989V8.53645H6.00138V7.27539Z" fill="#B3B4B4"/>
</svg>
