<svg width="21" height="20" viewBox="0 0 21 20" fill="none" xmlns="http://www.w3.org/2000/svg">
<path d="M11.8022 8.6582L11.1086 9.01501C11.239 9.10815 11.3531 9.2224 11.4461 9.35305L11.8022 8.6582ZM9.49665 10.63L9.1405 11.3061L9.83406 10.9681C9.70365 10.8749 9.58961 10.7607 9.49665 10.63" fill="#B3B4B4"/>
<path d="M15.4949 4.9375L13.2831 6.08303L13.6392 6.79665L13.2831 6.08303L8.85944 8.35532L5.448 15.0219L12.0834 11.6041L15.4949 4.9375ZM11.1087 9.05014L11.8023 8.69333L11.4461 9.38815C11.5664 9.57947 11.6313 9.80054 11.6336 10.0267C11.6336 10.3355 11.5111 10.6316 11.2932 10.8499C11.0752 11.0683 10.7797 11.191 10.4714 11.191C10.2426 11.191 10.0196 11.1187 9.83415 10.9844L9.14059 11.3412L9.49674 10.6651C9.37819 10.473 9.31346 10.2525 9.30931 10.0267C9.30931 9.71787 9.43173 9.4217 9.64967 9.20335C9.86761 8.985 10.1632 8.86233 10.4714 8.86233C10.6971 8.86458 10.9178 8.92961 11.1087 9.05014" fill="#B3B4B4"/>
<path d="M10.4906 0C8.76376 0.00191941 7.06633 0.448093 5.56094 1.29577C4.03265 2.17096 2.7607 3.43309 1.87249 4.95574C0.984283 6.4784 0.510984 8.20816 0.5 9.97175C0.501916 11.7018 0.947258 13.4024 1.79335 14.9106C2.67801 16.4814 3.97431 17.7802 5.54218 18.6665C7.05893 19.5407 8.77827 20.0005 10.5281 19.9998V19.9998C12.2767 20.0108 13.9967 19.5558 15.5119 18.6813C17.0271 17.8068 18.2828 16.5443 19.1504 15.0233C20.0345 13.5076 20.5003 11.7836 20.5 10.0281C20.5024 8.717 20.2468 7.41829 19.7477 6.20629C19.2487 4.9943 18.5159 3.89282 17.5914 2.96487C16.667 2.03692 15.5689 1.30071 14.3601 0.798406C13.1513 0.296106 11.8555 0.037564 10.5469 0.0375663L10.4906 0ZM3.29289 5.84031C4.03031 4.54381 5.1059 3.47272 6.40442 2.74177C7.66871 2.0277 9.0955 1.65254 10.5469 1.65257C12.0219 1.65769 13.4694 2.05283 14.7431 2.79805C16.0168 3.54326 17.0716 4.61216 17.8009 5.89668C18.7041 7.49566 19.0574 9.34781 18.8065 11.1678C18.5555 12.9878 17.7142 14.6746 16.4122 15.9684C15.1102 17.2622 13.4196 18.0912 11.601 18.3276C9.78244 18.564 7.93671 18.1948 6.34819 17.2768C5.05337 16.5306 3.98455 15.4469 3.25539 14.1407C2.5426 12.8809 2.16802 11.4574 2.16823 10.0093C2.1667 8.5442 2.55491 7.10516 3.29289 5.84031L2.59936 5.4272L3.29289 5.84031Z" fill="#B3B4B4"/>
<path d="M10.4718 9.14648C10.305 9.14648 10.1419 9.19604 10.0032 9.2889C9.86445 9.38175 9.75636 9.51373 9.69252 9.66814C9.62868 9.82256 9.61195 9.99246 9.6445 10.1564C9.67704 10.3203 9.75738 10.4709 9.87534 10.5891C9.9933 10.7073 10.1436 10.7878 10.3072 10.8204C10.4708 10.853 10.6405 10.8362 10.7946 10.7723C10.9487 10.7083 11.0804 10.6 11.1731 10.461C11.2658 10.322 11.3153 10.1587 11.3153 9.99154V9.99154C11.3153 9.76742 11.2264 9.55248 11.0682 9.394C10.91 9.23552 10.6955 9.14648 10.4718 9.14648" fill="#FEFEFF"/>
<path d="M10.4723 8.82617C10.1641 8.82617 9.86848 8.94884 9.65054 9.16719C9.43259 9.38554 9.31018 9.68168 9.31018 9.99047C9.31433 10.2163 9.37905 10.4368 9.4976 10.629C9.59057 10.7596 9.70461 10.8739 9.83501 10.967C10.0268 11.0858 10.2469 11.1506 10.4723 11.1548C10.7805 11.1548 11.0761 11.0321 11.2941 10.8137C11.512 10.5954 11.6344 10.2993 11.6344 9.99047H11.3158C11.3158 10.1576 11.2663 10.321 11.1736 10.4599C11.081 10.5989 10.9492 10.7072 10.7951 10.7712C10.641 10.8352 10.4714 10.8519 10.3077 10.8193C10.1441 10.7867 9.99382 10.7062 9.87586 10.588C9.75789 10.4698 9.67756 10.3192 9.64502 10.1553C9.61247 9.99139 9.6292 9.82149 9.69304 9.66707C9.75688 9.51266 9.86497 9.38068 10.0037 9.28783C10.1424 9.19497 10.3055 9.14541 10.4723 9.14541C10.696 9.14541 10.9105 9.23445 11.0687 9.39293C11.2269 9.55141 11.3158 9.76634 11.3158 9.99047H11.6344C11.6322 9.76435 11.5673 9.54331 11.447 9.35199C11.354 9.22134 11.24 9.10709 11.1096 9.01395C10.9186 8.89342 10.698 8.82842 10.4723 8.82617" fill="#B3B4B4"/>
</svg>
