<svg width="20" height="20" viewBox="0 0 20 20" fill="none" xmlns="http://www.w3.org/2000/svg">
<path d="M8.66931 0.500448C7.35719 0.506173 6.06559 0.826751 4.90285 1.43528C3.74011 2.0438 2.74014 2.92252 1.98685 3.99773C1.23356 5.07294 0.748934 6.31327 0.573593 7.61467C0.398252 8.91607 0.537323 10.2406 0.979148 11.4771C1.42097 12.7136 2.15267 13.826 3.11284 14.721C4.073 15.616 5.23363 16.2675 6.49737 16.6208C7.7611 16.9742 9.09109 17.019 10.3757 16.7517C11.6604 16.4843 12.8622 15.9125 13.8804 15.0842C13.7522 14.9333 13.6819 14.7417 13.6819 14.5437C13.6819 14.3457 13.7522 14.1541 13.8804 14.0032C13.9568 13.9247 14.0481 13.8625 14.149 13.8201C14.25 13.7777 14.3584 13.7562 14.4678 13.7567C14.6557 13.7559 14.8374 13.8233 14.9795 13.9463C15.9825 12.7451 16.6207 11.2815 16.8185 9.72865C17.0162 8.1758 16.7654 6.59877 16.0955 5.18417C15.4257 3.76957 14.3649 2.57664 13.0387 1.74659C11.7126 0.91653 10.1765 0.484085 8.61246 0.500448H8.66931ZM8.61246 15.2928C7.31444 15.2816 6.04878 14.8861 4.97496 14.1562C3.90114 13.4263 3.06721 12.3947 2.57824 11.1912C2.08926 9.98783 1.96712 8.66649 2.22721 7.39373C2.48731 6.12097 3.11802 4.95375 4.03984 4.03911C4.96165 3.12447 6.13334 2.50332 7.40728 2.25398C8.68121 2.00464 10.0004 2.13825 11.1986 2.63795C12.3968 3.13766 13.4204 3.9811 14.1404 5.06203C14.8605 6.14295 15.2447 7.41299 15.2448 8.7121C15.2423 9.58038 15.0686 10.4396 14.7338 11.2406C14.3989 12.0416 13.9093 12.7686 13.2932 13.3799C12.6771 13.9913 11.9465 14.4749 11.1433 14.8031C10.3401 15.1314 9.48004 15.2978 8.61246 15.2928" fill="#B3B4B4"/>
<path d="M14.525 13.7578C14.4156 13.7573 14.3071 13.7789 14.2062 13.8213C14.1053 13.8636 14.0139 13.9259 13.9375 14.0043C13.8094 14.1552 13.739 14.3468 13.739 14.5448C13.739 14.7429 13.8094 14.9345 13.9375 15.0853V15.0853L18.1254 19.2765C18.2797 19.4205 18.4829 19.5005 18.6939 19.5005C18.9049 19.5005 19.108 19.4205 19.2623 19.2765C19.3386 19.2007 19.399 19.1106 19.4403 19.0113C19.4816 18.9121 19.5028 18.8056 19.5028 18.6981C19.5028 18.5906 19.4816 18.4841 19.4403 18.3848C19.399 18.2856 19.3386 18.1954 19.2623 18.1196L15.0935 13.9474C14.9514 13.8244 14.7697 13.7571 14.5818 13.7578" fill="#B3B4B4"/>
</svg>
