<svg width="22" height="19" viewBox="0 0 22 19" fill="none" xmlns="http://www.w3.org/2000/svg">
<path d="M11.609 0.0950058C11.0828 0.0994909 10.5763 0.295338 10.184 0.645993L4.76902 4.636H2.86902C2.50119 4.62501 2.13491 4.68834 1.79212 4.82219C1.44933 4.95604 1.13707 5.15767 0.874013 5.41501C0.319874 6.00854 0.00805653 6.78804 0 7.6V11.514C0.00805653 12.326 0.319874 13.1055 0.874013 13.699C1.13707 13.9563 1.44933 14.158 1.79212 14.2918C2.13491 14.4257 2.50119 14.489 2.86902 14.478H4.76902L10.184 18.468C10.5791 18.8118 11.0853 19.0008 11.609 19C12.1129 19 12.5962 18.7998 12.9525 18.4435C13.3088 18.0872 13.509 17.6039 13.509 17.1V1.9C13.509 1.39609 13.3088 0.912815 12.9525 0.556496C12.5962 0.200177 12.1129 0 11.609 0V0.0950058ZM2.83101 13.072C1.27301 13.072 1.273 11.419 1.273 11.419V7.50499C1.273 7.50499 1.27301 5.83298 2.83101 5.83298H5.18702L11.039 1.539C11.1129 1.46344 11.2018 1.40413 11.2999 1.36487C11.3981 1.32561 11.5034 1.30728 11.609 1.311C11.7504 1.3286 11.8812 1.3953 11.9784 1.49948C12.0756 1.60366 12.1332 1.73872 12.141 1.88101V17.081C12.1332 17.2233 12.0756 17.3583 11.9784 17.4625C11.8812 17.5667 11.7504 17.6334 11.609 17.651C11.5018 17.6535 11.3953 17.6327 11.2969 17.5901C11.1985 17.5475 11.1105 17.484 11.039 17.404L5.18702 13.11H2.83101" fill="#B3B4B4"/>
<path d="M19.2088 3.4375L18.2588 4.34949C19.509 5.79582 20.1969 7.64375 20.1969 9.5555C20.1969 11.4673 19.509 13.3152 18.2588 14.7615L19.2088 15.6545C20.6893 13.9639 21.5054 11.7932 21.5054 9.54599C21.5054 7.2988 20.6893 5.12808 19.2088 3.4375" fill="#B3B4B4"/>
<path d="M16.6431 6.26953L15.6931 7.18152C16.2843 7.8294 16.604 8.67964 16.5861 9.55652C16.5964 10.4321 16.2777 11.2796 15.6931 11.9315L16.6431 12.8245C17.455 11.9316 17.8965 10.7632 17.8781 9.55652C17.8938 8.34465 17.4529 7.17125 16.6431 6.26953Z" fill="#B3B4B4"/>
</svg>
